<?xml version="1.0" encoding="UTF-8" standalone="no"?>
<!-- Created with "sPlan" (http://www.abacom-online.de) -->

<svg
   xmlns:dc="http://purl.org/dc/elements/1.1/"
   xmlns:cc="http://creativecommons.org/ns#"
   xmlns:rdf="http://www.w3.org/1999/02/22-rdf-syntax-ns#"
   xmlns:svg="http://www.w3.org/2000/svg"
   xmlns="http://www.w3.org/2000/svg"
   xmlns:sodipodi="http://sodipodi.sourceforge.net/DTD/sodipodi-0.dtd"
   xmlns:inkscape="http://www.inkscape.org/namespaces/inkscape"
   version="1.1"
   width="1439"
   height="1112.01"
   id="svg2"
   inkscape:version="0.48.2 r9819"
   sodipodi:docname="amplifier_circuit.svg">
  <metadata
     id="metadata218">
    <rdf:RDF>
      <cc:Work
         rdf:about="">
        <dc:format>image/svg+xml</dc:format>
        <dc:type
           rdf:resource="http://purl.org/dc/dcmitype/StillImage" />
      </cc:Work>
    </rdf:RDF>
  </metadata>
  <sodipodi:namedview
     pagecolor="#ffffff"
     bordercolor="#666666"
     borderopacity="1"
     objecttolerance="10"
     gridtolerance="10"
     guidetolerance="10"
     inkscape:pageopacity="0"
     inkscape:pageshadow="2"
     inkscape:window-width="1366"
     inkscape:window-height="713"
     id="namedview216"
     showgrid="false"
     fit-margin-top="0"
     fit-margin-left="0"
     fit-margin-right="0"
     fit-margin-bottom="0"
     inkscape:zoom="0.39326599"
     inkscape:cx="603.57885"
     inkscape:cy="466.91745"
     inkscape:window-x="0"
     inkscape:window-y="26"
     inkscape:window-maximized="1"
     inkscape:current-layer="svg2" />
  <title
     id="title4">sPlan</title>
  <defs
     id="defs6">
    <style
       type="text/css"
       id="style8">
polyline {stroke-linecap:round; stroke-linejoin:round}
polygon {stroke-linecap:round; stroke-linejoin:round}
path {stroke-linecap:round; stroke-linejoin:round}
</style>
  </defs>
  <path
     style="fill:none;stroke:#000000;stroke-width:2;stroke-linecap:square;stroke-linejoin:miter"
     d="m 1,584 172,0 0,295 -172,0 0,-295"
     id="path10"
     inkscape:connector-curvature="0" />
  <text
     x="50.914906"
     y="815.58264"
     font-size="19pt"
     font-weight="normal"
     font-style="normal"
     transform="scale(1.0089599,0.99111971)"
     id="text12"
     style="font-size:23.96279716px;font-style:normal;font-weight:normal;fill:#000000;font-family:Arial">11~(PWM)</text>
  <polyline
     points="212.64 869.11 239.10 869.11"
     id="polyline14"
     style="fill:none;stroke:#000000;stroke-width:2;stroke-linecap:round;stroke-linejoin:round"
     transform="translate(-29,-69)" />
  <circle
     cx="278.79001"
     cy="869.10999"
     r="39.689999"
     id="circle16"
     sodipodi:cx="278.79001"
     sodipodi:cy="869.10999"
     sodipodi:rx="39.689999"
     sodipodi:ry="39.689999"
     style="fill:#ffffff;stroke:#000000;stroke-width:2"
     transform="translate(-29,-69)" />
  <polyline
     points="318.47 869.11 344.93 869.11"
     id="polyline18"
     style="fill:none;stroke:#000000;stroke-width:2;stroke-linecap:round;stroke-linejoin:round"
     transform="translate(-29,-69)" />
  <polyline
     points="252.33 869.11 265.56 855.88 265.56 882.34 292.02 855.88 292.02 882.34 305.25 869.11"
     id="polyline20"
     style="fill:none;stroke:#000000;stroke-width:2;stroke-linecap:round;stroke-linejoin:round"
     transform="translate(-29,-69)" />
  <circle
     cx="186.19"
     cy="922.06"
     r="13.23"
     id="circle22"
     sodipodi:cx="186.19"
     sodipodi:cy="922.06"
     sodipodi:rx="13.23"
     sodipodi:ry="13.23"
     style="fill:#ffffff;stroke:#000000;stroke-width:2"
     transform="translate(-29,-69)" />
  <polyline
     points="179.58 926.69 192.81 926.69"
     id="polyline24"
     style="fill:none;stroke:#000000;stroke-width:6;stroke-linecap:round;stroke-linejoin:round"
     transform="translate(-29,-69)" />
  <polyline
     points="186.19 926.69 186.19 913.46"
     id="polyline26"
     style="fill:none;stroke:#000000;stroke-width:4;stroke-linecap:round;stroke-linejoin:round"
     transform="translate(-29,-69)" />
  <polyline
     points="199.41 922.03 212.64 922.03"
     id="polyline28"
     style="fill:none;stroke:#000000;stroke-width:2;stroke-linecap:round;stroke-linejoin:round"
     transform="translate(-29,-69)" />
  <circle
     cx="212.64"
     cy="922.03003"
     r="3.3099999"
     id="circle30"
     sodipodi:cx="212.64"
     sodipodi:cy="922.03003"
     sodipodi:rx="3.3099999"
     sodipodi:ry="3.3099999"
     style="fill:#ffffff;stroke:#000000;stroke-width:2"
     transform="translate(-29,-69)" />
  <polyline
     points="199.41 869.11 212.64 869.11"
     id="polyline32"
     style="fill:none;stroke:#000000;stroke-width:2;stroke-linecap:round;stroke-linejoin:round"
     transform="translate(-29,-69)" />
  <circle
     cx="212.64"
     cy="869.10999"
     r="3.3099999"
     id="circle34"
     sodipodi:cx="212.64"
     sodipodi:cy="869.10999"
     sodipodi:rx="3.3099999"
     sodipodi:ry="3.3099999"
     style="fill:#ffffff;stroke:#000000;stroke-width:2"
     transform="translate(-29,-69)" />
  <path
     style="fill:none;stroke:#000000;stroke-width:2;stroke-linecap:square;stroke-linejoin:miter"
     d="m 999,416 320,0 0,695 -320,0 0,-695"
     id="path36"
     inkscape:connector-curvature="0" />
  <path
     style="fill:none;stroke:#000000;stroke-width:2;stroke-linecap:square;stroke-linejoin:miter"
     d="m 528,1 423,0 0,232 -423,0 0,-232"
     id="path38"
     inkscape:connector-curvature="0" />
  <polyline
     points="212.64 922.03 341.44 922.03 341.44 1148.06"
     id="polyline40"
     style="fill:none;stroke:#000000;stroke-width:2;stroke-linecap:round;stroke-linejoin:round"
     transform="translate(-29,-69)" />
  <path
     style="fill:#000000;stroke:#000000;stroke-width:2;stroke-linecap:square;stroke-linejoin:miter"
     d="m 296,1103 32,0 0,8 -32,0 0,-8"
     id="path42"
     inkscape:connector-curvature="0" />
  <polyline
     points="341.44 1148.06 341.44 1172.02"
     id="polyline44"
     style="fill:none;stroke:#000000;stroke-width:2;stroke-linecap:round;stroke-linejoin:round"
     transform="translate(-29,-69)" />
  <path
     style="fill:#000000;stroke:#000000;stroke-width:2;stroke-linecap:square;stroke-linejoin:miter"
     d="m 592,288 32,0 0,8 -32,0 0,-8"
     id="path46"
     inkscape:connector-curvature="0" />
  <polyline
     points="636.90 333.50 636.90 357.46"
     id="polyline48"
     style="fill:none;stroke:#000000;stroke-width:2;stroke-linecap:round;stroke-linejoin:round"
     transform="translate(-29,-69)" />
  <polyline
     points="884.46 301.58 884.46 317.55"
     id="polyline50"
     style="fill:none;stroke:#000000;stroke-width:2;stroke-linecap:round;stroke-linejoin:round"
     transform="translate(-29,-69)" />
  <circle
     cx="884.46002"
     cy="325.54001"
     r="7.9899998"
     id="circle52"
     sodipodi:cx="884.46002"
     sodipodi:cy="325.54001"
     sodipodi:rx="7.9899998"
     sodipodi:ry="7.9899998"
     style="fill:#ffffff;stroke:#000000;stroke-width:2"
     transform="translate(-29,-69)" />
  <polyline
     points="636.91 301.58 636.91 317.55"
     id="polyline54"
     style="fill:none;stroke:#000000;stroke-width:2;stroke-linecap:round;stroke-linejoin:round"
     transform="translate(-29,-69)" />
  <circle
     cx="636.90997"
     cy="325.54001"
     r="7.9899998"
     id="circle56"
     sodipodi:cx="636.90997"
     sodipodi:cy="325.54001"
     sodipodi:rx="7.9899998"
     sodipodi:ry="7.9899998"
     style="fill:#ffffff;stroke:#000000;stroke-width:2"
     transform="translate(-29,-69)" />
  <polyline
     points="1092.07 485.26 1092.07 1172.02 1092.07 1180.01"
     id="polyline58"
     style="fill:none;stroke:#000000;stroke-width:2;stroke-linecap:round;stroke-linejoin:round"
     transform="translate(-29,-69)" />
  <polyline
     points="1147.97 485.26 1147.97 1180.01"
     id="polyline60"
     style="fill:none;stroke:#000000;stroke-width:2;stroke-linecap:round;stroke-linejoin:round"
     transform="translate(-29,-69)" />
  <path
     style="fill:none;stroke:#000000;stroke-width:2;stroke-linecap:square;stroke-linejoin:miter"
     d="m 983,967 16,0 0,32 -16,0 0,-32"
     id="path62"
     inkscape:connector-curvature="0" />
  <path
     style="fill:none;stroke:#000000;stroke-width:2;stroke-linecap:square;stroke-linejoin:miter"
     d="m 983,847 16,0 0,32 -16,0 0,-32"
     id="path64"
     inkscape:connector-curvature="0" />
  <path
     style="fill:none;stroke:#000000;stroke-width:2;stroke-linecap:square;stroke-linejoin:miter"
     d="m 983,784 16,0 0,32 -16,0 0,-32"
     id="path66"
     inkscape:connector-curvature="0" />
  <path
     style="fill:none;stroke:#000000;stroke-width:2;stroke-linecap:square;stroke-linejoin:miter"
     d="m 983,648 16,0 0,32 -16,0 0,-32"
     id="path68"
     inkscape:connector-curvature="0" />
  <path
     style="fill:none;stroke:#000000;stroke-width:2;stroke-linecap:square;stroke-linejoin:miter"
     d="m 983,544 16,0 0,32 -16,0 0,-32"
     id="path70"
     inkscape:connector-curvature="0" />
  <polyline
     points="1020.20 740.80 1060.13 740.80 1060.13 932.45 1020.20 932.45"
     id="polyline72"
     style="fill:none;stroke:#000000;stroke-width:2;stroke-linecap:round;stroke-linejoin:round"
     transform="translate(-29,-69)" />
  <polyline
     points="1060.13 740.80 1080.09 740.80"
     id="polyline74"
     style="fill:none;stroke:#000000;stroke-width:2;stroke-linecap:round;stroke-linejoin:round"
     transform="translate(-29,-69)" />
  <path
     d="m 1070.96,672.58 m 0,0 q 0.1,-0.78 0,-1.56 -0.09,-0.78 -0.38,-1.53 -0.28,-0.75 -0.74,-1.44 -0.46,-0.69 -1.08,-1.29 -0.62,-0.61 -1.38,-1.11 -0.76,-0.49 -1.62,-0.86 -0.86,-0.37 -1.8,-0.6 -0.94,-0.23 -1.91,-0.3 -0.97,-0.08 -1.95,0 -0.97,0.07 -1.91,0.3 -0.93,0.23 -1.8,0.6 -0.86,0.37 -1.61,0.86 -0.76,0.5 -1.38,1.11 -0.62,0.6 -1.08,1.29 -0.47,0.69 -0.75,1.44 -0.28,0.75 -0.38,1.53 -0.1,0.78 0,1.56 0.1,0.77 0.38,1.52 0.28,0.75 0.75,1.44 0.46,0.69 1.08,1.3 0.62,0.6 1.38,1.1 0.75,0.5 1.61,0.87 0.87,0.36 1.8,0.59 0.94,0.23 1.91,0.31 0.98,0.07 1.95,0 0.97,-0.08 1.91,-0.31 0.94,-0.23 1.8,-0.59 0.86,-0.37 1.62,-0.87 0.76,-0.5 1.38,-1.1 0.62,-0.61 1.08,-1.3 0.46,-0.69 0.74,-1.44 0.29,-0.75 0.38,-1.52 z"
     id="path76"
     inkscape:connector-curvature="0"
     style="fill:#ffffff;stroke:#000000;stroke-width:2;stroke-linecap:round;stroke-linejoin:round" />
  <polyline
     points="1120.00 1060.00 1135.97 1060.00"
     id="polyline78"
     style="fill:none;stroke:#000000;stroke-width:2;stroke-linecap:round;stroke-linejoin:round"
     transform="translate(-29,-69)" />
  <circle
     cx="1143.96"
     cy="1060"
     r="7.9899998"
     id="circle80"
     sodipodi:cx="1143.96"
     sodipodi:cy="1060"
     sodipodi:rx="7.9899998"
     sodipodi:ry="7.9899998"
     style="fill:#ffffff;stroke:#000000;stroke-width:2"
     transform="translate(-29,-69)" />
  <text
     x="576.42456"
     y="133.6062"
     font-size="39pt"
     font-weight="normal"
     font-style="normal"
     transform="scale(0.9989995,1.0010015)"
     id="text82"
     style="font-size:48.70122528px;font-style:normal;font-weight:normal;fill:#000000;font-family:Arial">Carrera-Trafo</text>
  <text
     x="24.966879"
     y="665.12384"
     font-size="22pt"
     font-weight="normal"
     font-style="normal"
     transform="scale(0.9989995,1.0010015)"
     id="text84"
     style="font-size:27.4724865px;font-style:normal;font-weight:normal;fill:#000000;font-family:Arial">Arduino</text>
  <path
     style="fill:none;stroke:#000000;stroke-width:2;stroke-linecap:square;stroke-linejoin:miter"
     d="m 33,65 96,0 0,80 -96,0 0,-80"
     id="path86"
     inkscape:connector-curvature="0" />
  <polyline
     points="85.90 213.74 85.90 652.95"
     id="polyline88"
     style="fill:none;stroke:#000000;stroke-width:2;stroke-linecap:round;stroke-linejoin:round"
     transform="translate(-29,-69)" />
  <polyline
     points="125.83 213.74 125.83 652.95"
     id="polyline90"
     style="fill:none;stroke:#000000;stroke-width:2;stroke-linecap:round;stroke-linejoin:round"
     transform="translate(-29,-69)" />
  <text
     x="64.926865"
     y="114.66516"
     font-size="22pt"
     font-weight="normal"
     font-style="normal"
     transform="scale(0.9989995,1.0010015)"
     id="text92"
     style="font-size:27.4724865px;font-style:normal;font-weight:normal;fill:#000000;font-family:Arial">9V</text>
  <text
     x="872.11847"
     y="290.17938"
     font-size="22pt"
     font-weight="normal"
     font-style="normal"
     transform="scale(0.9989995,1.0010015)"
     id="text94"
     style="font-size:27.4724865px;font-style:normal;font-weight:normal;fill:#000000;font-family:Arial">+20V</text>
  <text
     x="1119.8604"
     y="322.09744"
     font-size="22pt"
     font-weight="normal"
     font-style="normal"
     transform="scale(0.9989995,1.0010015)"
     id="text96"
     style="font-size:27.4724865px;font-style:normal;font-weight:normal;fill:#000000;font-family:Arial">Bahn</text>
  <polyline
     points="1235.81 485.26 1235.81 1180.01"
     id="polyline98"
     style="fill:none;stroke:#000000;stroke-width:2;stroke-linecap:round;stroke-linejoin:round"
     transform="translate(-29,-69)" />
  <polyline
     points="1291.71 485.26 1291.71 1172.02 1291.71 1180.01"
     id="polyline100"
     style="fill:none;stroke:#000000;stroke-width:2;stroke-linecap:round;stroke-linejoin:round"
     transform="translate(-29,-69)" />
  <circle
     cx="1124.02"
     cy="861.90997"
     r="43.919998"
     id="circle102"
     sodipodi:cx="1124.02"
     sodipodi:cy="861.90997"
     sodipodi:rx="43.919998"
     sodipodi:ry="43.919998"
     style="fill:#ffffff;stroke:#000000;stroke-width:2"
     transform="translate(-29,-69)" />
  <polyline
     points="1109.38 852.15 1143.54 852.15 1119.14 861.91 1143.54 871.67 1109.38 871.67"
     id="polyline104"
     style="fill:none;stroke:#000000;stroke-width:2;stroke-linecap:round;stroke-linejoin:round"
     transform="translate(-29,-69)" />
  <polyline
     points="1124.02 817.99 1124.02 788.71"
     id="polyline106"
     style="fill:none;stroke:#000000;stroke-width:2;stroke-linecap:round;stroke-linejoin:round"
     transform="translate(-29,-69)" />
  <polyline
     points="1124.02 935.11 1124.02 905.83"
     id="polyline108"
     style="fill:none;stroke:#000000;stroke-width:2;stroke-linecap:round;stroke-linejoin:round"
     transform="translate(-29,-69)" />
  <polyline
     points="1099.61 847.27 1099.61 876.55"
     id="polyline110"
     style="fill:none;stroke:#000000;stroke-width:2;stroke-linecap:round;stroke-linejoin:round"
     transform="translate(-29,-69)" />
  <text
     x="841.66998"
     y="-1105.3"
     font-size="17pt"
     font-weight="normal"
     font-style="normal"
     transform="matrix(0,1,-1,0,0,0)"
     id="text112"
     style="font-size:21.25px;font-style:normal;font-weight:normal;fill:#000000;font-family:ARIAL">M1</text>
  <polyline
     points="1124.02 935.11 1147.97 935.11"
     id="polyline114"
     style="fill:none;stroke:#000000;stroke-width:2;stroke-linecap:round;stroke-linejoin:round"
     transform="translate(-29,-69)" />
  <polyline
     points="1124.02 788.71 1092.07 788.71"
     id="polyline116"
     style="fill:none;stroke:#000000;stroke-width:2;stroke-linecap:round;stroke-linejoin:round"
     transform="translate(-29,-69)" />
  <polygon
     points="1180,861 1252,897 1467,897 1467,825 1252,825 "
     id="polygon118"
     style="fill:#ffffff;stroke:#000000;stroke-width:2;stroke-linecap:round;stroke-linejoin:round"
     transform="translate(-29,-69)" />
  <text
     x="-1420.4679"
     y="-779.71521"
     font-size="40pt"
     font-weight="normal"
     font-style="normal"
     transform="scale(-1.0044899,-0.99553015)"
     id="text120"
     style="font-size:50.22449493px;font-style:normal;font-weight:normal;fill:#000000;font-family:ARIAL" />
  <text
     x="1239.7404"
     y="805.73303"
     font-size="33pt"
     font-weight="normal"
     font-style="normal"
     transform="scale(0.9989995,1.0010015)"
     id="text122"
     style="font-size:41.20872879px;font-style:normal;font-weight:normal;fill:#000000;font-family:Arial">Fahrzeug</text>
  <polyline
     points="1044.16 629.00 884.46 629.00 884.46 317.55"
     id="polyline124"
     style="fill:none;stroke:#000000;stroke-width:2;stroke-linecap:round;stroke-linejoin:round"
     transform="translate(-29,-69)" />
  <polyline
     points="1044.16 629.00 1044.16 868.56 1012.23 868.56"
     id="polyline126"
     style="fill:none;stroke:#000000;stroke-width:2;stroke-linecap:round;stroke-linejoin:round"
     transform="translate(-29,-69)" />
  <polyline
     points="1120.00 1060.00 1010.00 1060.00"
     id="polyline128"
     style="fill:none;stroke:#000000;stroke-width:2;stroke-linecap:round;stroke-linejoin:round"
     transform="translate(-29,-69)" />
  <polyline
     points="1012.23 868.56 940.00 868.56 940.00 1060.00 1010.00 1060.00"
     id="polyline130"
     style="fill:none;stroke:#ff0000;stroke-width:2;stroke-linecap:round;stroke-linejoin:round"
     transform="translate(-29,-69)" />
  <polyline
     points="200.00 830.00 213.23 830.00"
     id="polyline132"
     style="fill:none;stroke:#000000;stroke-width:2;stroke-linecap:round;stroke-linejoin:round"
     transform="translate(-29,-69)" />
  <circle
     cx="213.23"
     cy="830"
     r="3.3099999"
     id="circle134"
     sodipodi:cx="213.23"
     sodipodi:cy="830"
     sodipodi:rx="3.3099999"
     sodipodi:ry="3.3099999"
     style="fill:#ffffff;stroke:#000000;stroke-width:2"
     transform="translate(-29,-69)" />
  <circle
     cx="1190.02"
     cy="1110.02"
     r="20"
     id="circle136"
     sodipodi:cx="1190.02"
     sodipodi:cy="1110.02"
     sodipodi:rx="20"
     sodipodi:ry="20"
     style="fill:#ffffff;stroke:#000000;stroke-width:2"
     transform="translate(-29,-69)" />
  <polyline
     points="1190.02 1100.02 1190.02 1120.02"
     id="polyline138"
     style="fill:none;stroke:#000000;stroke-width:4;stroke-linecap:round;stroke-linejoin:round"
     transform="translate(-29,-69)" />
  <polyline
     points="1180.02 1110.02 1200.02 1110.02"
     id="polyline140"
     style="fill:none;stroke:#000000;stroke-width:4;stroke-linecap:round;stroke-linejoin:round"
     transform="translate(-29,-69)" />
  <circle
     cx="1059.97"
     cy="679.98999"
     r="20"
     id="circle142"
     sodipodi:cx="1059.97"
     sodipodi:cy="679.98999"
     sodipodi:rx="20"
     sodipodi:ry="20"
     style="fill:#ffffff;stroke:#000000;stroke-width:2"
     transform="translate(-29,-69)" />
  <polyline
     points="1049.97 686.99 1069.97 686.99"
     id="polyline144"
     style="fill:none;stroke:#000000;stroke-width:6;stroke-linecap:round;stroke-linejoin:round"
     transform="translate(-29,-69)" />
  <polyline
     points="1059.97 686.99 1059.97 666.99"
     id="polyline146"
     style="fill:none;stroke:#000000;stroke-width:4;stroke-linecap:round;stroke-linejoin:round"
     transform="translate(-29,-69)" />
  <polygon
     points="1062,730 1080,730 1080,712 1075,717 1068,710 1060,718 1067,725 "
     id="polygon148"
     style="fill:#000000;stroke:#000000;stroke-width:2;stroke-linecap:round;stroke-linejoin:round"
     transform="translate(-29,-69)" />
  <polygon
     points="1178,1070 1160,1070 1160,1088 1165,1083 1172,1090 1180,1082 1173,1075 "
     id="polygon150"
     style="fill:#000000;stroke:#000000;stroke-width:2;stroke-linecap:round;stroke-linejoin:round"
     transform="translate(-29,-69)" />
  <path
     style="fill:#000000;stroke:#000000;stroke-width:2;stroke-linecap:square;stroke-linejoin:miter"
     d="m 688,1067 32,0 0,8 -32,0 0,-8"
     id="path152"
     inkscape:connector-curvature="0" />
  <polyline
     points="733.16 1111.72 733.16 1135.67"
     id="polyline154"
     style="fill:none;stroke:#000000;stroke-width:2;stroke-linecap:round;stroke-linejoin:round"
     transform="translate(-29,-69)" />
  <polyline
     points="734.93 1049.11 733.16 1111.72"
     id="polyline156"
     style="fill:none;stroke:#000000;stroke-width:2;stroke-linecap:round;stroke-linejoin:round"
     transform="translate(-29,-69)" />
  <circle
     cx="884"
     cy="629"
     r="6"
     id="circle158"
     sodipodi:cx="884"
     sodipodi:cy="629"
     sodipodi:rx="6"
     sodipodi:ry="6"
     style="fill:#000000;stroke:none"
     transform="translate(-29,-69)" />
  <circle
     cx="1060"
     cy="741"
     r="6"
     id="circle160"
     sodipodi:cx="1060"
     sodipodi:cy="741"
     sodipodi:rx="6"
     sodipodi:ry="6"
     style="fill:#000000;stroke:none"
     transform="translate(-29,-69)" />
  <path
     style="fill:#ffffff;stroke:#000000;stroke-width:2;stroke-linecap:square;stroke-linejoin:miter"
     d="m 571,600 30,0 0,70 -30,0 0,-70"
     id="path162"
     inkscape:connector-curvature="0" />
  <polyline
     points="614.93 629.11 614.93 669.11"
     id="polyline164"
     style="fill:none;stroke:#000000;stroke-width:2;stroke-linecap:round;stroke-linejoin:round"
     transform="translate(-29,-69)" />
  <polyline
     points="614.93 739.11 614.93 779.11"
     id="polyline166"
     style="fill:none;stroke:#000000;stroke-width:2;stroke-linecap:round;stroke-linejoin:round"
     transform="translate(-29,-69)" />
  <text
     x="605.92999"
     y="629.10999"
     font-size="17pt"
     font-weight="normal"
     font-style="normal"
     id="text168"
     style="font-size:21.25px;font-style:normal;font-weight:normal;fill:#000000;font-family:ARIAL">R1</text>
  <text
     x="605.92999"
     y="649.10999"
     font-size="17pt"
     font-weight="normal"
     font-style="normal"
     id="text170"
     style="font-size:21.25px;font-style:normal;font-weight:normal;fill:#000000;font-family:ARIAL">1k</text>
  <text
     x="131"
     y="783"
     font-size="28pt"
     font-weight="normal"
     font-style="normal"
     id="text172"
     style="font-size:35px;font-style:normal;font-weight:normal;fill:#000000;font-family:Arial">5V</text>
  <path
     style="fill:#ffffff;stroke:#000000;stroke-width:2;stroke-linecap:square;stroke-linejoin:miter"
     d="m 356,785 70,0 0,30 -70,0 0,-30"
     id="path174"
     inkscape:connector-curvature="0" />
  <polyline
     points="344.93 869.11 384.93 869.11"
     id="polyline176"
     style="fill:none;stroke:#000000;stroke-width:2;stroke-linecap:round;stroke-linejoin:round"
     transform="translate(-29,-69)" />
  <polyline
     points="454.93 869.11 494.93 869.11"
     id="polyline178"
     style="fill:none;stroke:#000000;stroke-width:2;stroke-linecap:round;stroke-linejoin:round"
     transform="translate(-29,-69)" />
  <text
     x="355.92999"
     y="779.10999"
     font-size="17pt"
     font-weight="normal"
     font-style="normal"
     id="text180"
     style="font-size:21.25px;font-style:normal;font-weight:normal;fill:#000000;font-family:ARIAL">R2</text>
  <text
     x="355.92999"
     y="834.10999"
     font-size="17pt"
     font-weight="normal"
     font-style="normal"
     id="text182"
     style="font-size:21.25px;font-style:normal;font-weight:normal;fill:#000000;font-family:ARIAL">2.2k</text>
  <path
     style="fill:#000000;stroke:#000000;stroke-width:2;stroke-linecap:square;stroke-linejoin:miter"
     d="m 526,770 6,0 0,57 -6,0 0,-57"
     id="path184"
     inkscape:connector-curvature="0" />
  <polyline
     points="554.93 869.11 494.93 869.11"
     id="polyline186"
     style="fill:none;stroke:#000000;stroke-width:2;stroke-linecap:round;stroke-linejoin:round"
     transform="translate(-29,-69)" />
  <polyline
     points="554.93 859.11 614.93 819.11 614.93 779.11"
     id="polyline188"
     style="fill:none;stroke:#000000;stroke-width:2;stroke-linecap:round;stroke-linejoin:round"
     transform="translate(-29,-69)" />
  <polyline
     points="554.93 879.11 614.93 919.11 614.93 959.11"
     id="polyline190"
     style="fill:none;stroke:#000000;stroke-width:2;stroke-linecap:round;stroke-linejoin:round"
     transform="translate(-29,-69)" />
  <polygon
     points="594,897 587,909 606,913 "
     id="polygon192"
     style="fill:#000000;stroke:#000000;stroke-width:1;stroke-linecap:round;stroke-linejoin:round"
     transform="translate(-29,-69)" />
  <text
     x="505.92999"
     y="749.10999"
     font-size="17pt"
     font-weight="normal"
     font-style="normal"
     id="text194"
     style="font-size:21.25px;font-style:normal;font-weight:normal;fill:#000000;font-family:ARIAL">BD 170</text>
  <text
     x="505.92999"
     y="869.10999"
     font-size="17pt"
     font-weight="normal"
     font-style="normal"
     id="text196"
     style="font-size:21.25px;font-style:normal;font-weight:normal;fill:#000000;font-family:ARIAL" />
  <path
     style="fill:#000000;stroke:#000000;stroke-width:2;stroke-linecap:square;stroke-linejoin:miter"
     d="m 646,860 6,0 0,57 -6,0 0,-57"
     id="path198"
     inkscape:connector-curvature="0" />
  <polyline
     points="674.93 959.11 614.93 959.11"
     id="polyline200"
     style="fill:none;stroke:#000000;stroke-width:2;stroke-linecap:round;stroke-linejoin:round"
     transform="translate(-29,-69)" />
  <polyline
     points="674.93 949.11 734.93 909.11 734.93 869.11"
     id="polyline202"
     style="fill:none;stroke:#000000;stroke-width:2;stroke-linecap:round;stroke-linejoin:round"
     transform="translate(-29,-69)" />
  <polyline
     points="674.93 969.11 734.93 1009.11 734.93 1049.11"
     id="polyline204"
     style="fill:none;stroke:#000000;stroke-width:2;stroke-linecap:round;stroke-linejoin:round"
     transform="translate(-29,-69)" />
  <polygon
     points="714,987 707,999 726,1003 "
     id="polygon206"
     style="fill:#000000;stroke:#000000;stroke-width:1;stroke-linecap:round;stroke-linejoin:round"
     transform="translate(-29,-69)" />
  <text
     x="625.92999"
     y="839.10999"
     font-size="17pt"
     font-weight="normal"
     font-style="normal"
     id="text208"
     style="font-size:21.25px;font-style:normal;font-weight:normal;fill:#000000;font-family:ARIAL">BD 201</text>
  <text
     x="625.92999"
     y="959.10999"
     font-size="17pt"
     font-weight="normal"
     font-style="normal"
     id="text210"
     style="font-size:21.25px;font-style:normal;font-weight:normal;fill:#000000;font-family:ARIAL" />
  <polyline
     points="213.23 830.00 213.23 630.00 614.93 629.11"
     id="polyline212"
     style="fill:none;stroke:#000000;stroke-width:2;stroke-linecap:round;stroke-linejoin:round"
     transform="translate(-29,-69)" />
  <polyline
     points="734.93 869.11 734.93 740.00 1020.20 740.80"
     id="polyline214"
     style="fill:none;stroke:#000000;stroke-width:2;stroke-linecap:round;stroke-linejoin:round"
     transform="translate(-29,-69)" />
</svg>
